PathFileType	4	(X/Y/Z)	pose_F01_0-77.trc
DataRate	CameraRate	NumFrames	NumMarkers	Units	OrigDataRate	OrigDataStartFrame	OrigNumFrames
30	30	7	21	m	30	67	77
Frame#	Time	CHip			RHip			RKnee			RAnkle			RBigToe			RSmallToe			RHeel			LHip			LKnee			LAnkle			LBigToe			LSmallToe			LHeel			Neck			Nose			RShoulder			RElbow			RWrist			LShoulder			LElbow			LWrist			
		X1	Y1	Z1	X2	Y2	Z2	X3	Y3	Z3	X4	Y4	Z4	X5	Y5	Z5	X6	Y6	Z6	X7	Y7	Z7	X8	Y8	Z8	X9	Y9	Z9	X10	Y10	Z10	X11	Y11	Z11	X12	Y12	Z12	X13	Y13	Z13	X14	Y14	Z14	X15	Y15	Z15	X16	Y16	Z16	X17	Y17	Z17	X18	Y18	Z18	X19	Y19	Z19	X20	Y20	Z20	X21	Y21	Z21	
67	2.2333333333333334	-0.24511970975254818	1.8707299567891105	-0.5327356816833736	-0.2543951458128039	1.8676676785984345	-0.4654687615138775	-0.23662749759605195	1.7170377010103788	-0.42030100279387733	-0.24006179589190466	1.5548195107853293	-0.3259613659039416	-0.20713714891561966	1.5091481763313728	-0.3444902060245379	-0.21812684499550417	1.5103608330075187	-0.30183462786799936	-0.25557523348926575	1.5475746851643268	-0.3174923270996116	-0.23604406567764238	1.874439741228137	-0.5943528050227346	-0.24199764667208887	1.7239119999899817	-0.5842700143285854	-0.2714596494878232	1.5968689038455788	-0.5240509699409045	-0.2434890621790413	1.567062910707222	-0.586067785577109	-0.2499649503489654	1.5750154273826782	-0.6017793085371551	-0.27198747004910384	1.582102357953932	-0.508148131351594	-0.24602440435406747	2.0380473588904717	-0.5326602493779766	-0.2204522800497016	2.1076644522134163	-0.556916796758128	-0.2583535569501005	2.033492141192768	-0.437064699009246	-0.2507482803731553	1.9510715280938509	-0.4325451675676207	-0.20785733732346898	1.9173774669295551	-0.4136896495228128	-0.23395862061159597	2.0439536075906326	-0.6291522306033392	-0.2410990594420579	1.9658197794296894	-0.6529604637134524	-0.20520038684832653	1.9394514869635964	-0.6497461431722904
68	2.2666666666666666	-0.24513614967658945	1.8748600602688426	-0.533446204210425	-0.2562870958309584	1.872947527232985	-0.46424320955444	-0.23835699634752747	1.7237356920228573	-0.41913373016547095	-0.23952802219821065	1.5572634835042698	-0.327068277521228	-0.20794478304444855	1.5077946379373888	-0.3479527016739483	-0.2207539119131397	1.5107296055636557	-0.3037621925102949	-0.25368706016645054	1.5491634759689694	-0.31516493153247627	-0.23564555807580542	1.8808755841855698	-0.5953466804069962	-0.24274799134213976	1.7320964990320291	-0.5801315336073632	-0.27242853463536654	1.596753963043566	-0.5228130892641925	-0.2430788405881353	1.5698600682984454	-0.582624456126692	-0.2502503868522641	1.5793654092736442	-0.6020278997917013	-0.26956665780612393	1.5800283415263332	-0.5103896522316559	-0.24594814684080085	2.0420214280462883	-0.5336825218761311	-0.22029369576220142	2.1134730686631746	-0.5576477655552371	-0.2592421347742289	2.037805404457109	-0.44119351244041793	-0.2525279259471286	1.9532967228738243	-0.42216210223877254	-0.21529317587570485	1.8973191591105005	-0.39797781745502026	-0.23386178417532513	2.046504280608846	-0.6295979307879342	-0.2377372718772959	1.9723697365071537	-0.6526795031840084	-0.20344795422579204	1.926707393967164	-0.6521717849545589
69	2.3	-0.24830820277479806	1.8761027333526668	-0.5259817383876663	-0.25618367074164905	1.872779133460749	-0.4555422997498413	-0.24321112015744217	1.7202009987965234	-0.40895958325131154	-0.23892093683458335	1.559223161051043	-0.32821634912722564	-0.21086369235633606	1.5099395500292494	-0.34032189984383826	-0.22315661081266988	1.5119484541902128	-0.2965773509146366	-0.250966474757681	1.5547494554688452	-0.319628158702018	-0.23484002058361836	1.8821449848256577	-0.592258314447384	-0.25196972384633437	1.732493397282358	-0.5703715677954494	-0.2732325063321621	1.5980120140921534	-0.5264046995786605	-0.24526694360671333	1.570747555533737	-0.5890575827643881	-0.2505232595964382	1.5803183646497423	-0.6020864687546343	-0.26956665780612393	1.5800283415263332	-0.5103896522316559	-0.24481761036485472	2.045717914193971	-0.5308970810027422	-0.2191713016053402	2.1200491322548625	-0.5652528606425374	-0.25797872575057257	2.0425754851498215	-0.43835231454841445	-0.25029135689639476	1.954212971511694	-0.41572241530223775	-0.2216582890111033	1.8806110091032868	-0.3913864810219132	-0.23354362719711774	2.0513325324080123	-0.6296979194519393	-0.23360655632265515	1.9743515944420502	-0.6577340399091182	-0.20571135109704436	1.919310587303957	-0.6587054831738601
70	2.3333333333333335	-0.24655273092958005	1.8804955596658284	-0.5288824408398191	-0.2565870927118235	1.8759359996983753	-0.45616708026927294	-0.2491071956779707	1.727536818671207	-0.4079727019084765	-0.2406036782241696	1.5686955611778444	-0.3274851355375589	-0.21378260166822355	1.51208446212111	-0.3326910980137282	-0.2242477943518127	1.5168543038327216	-0.2964117772852379	-0.25171556306001075	1.5632870791025424	-0.32420810539779915	-0.23424131170402593	1.883515533082355	-0.5895131485167473	-0.25657621247594703	1.7305590999844458	-0.5653591359434597	-0.27303353753048754	1.5993142085014251	-0.5270062523154152	-0.24645705329546022	1.5685320603457962	-0.5832137451781598	-0.2502399325054626	1.578768379543449	-0.6020647824536952	-0.26956665780612393	1.5800283415263332	-0.5103896522316559	-0.24744019579152768	2.049358145910905	-0.5321941301275118	-0.21801440704202993	2.1219274882757806	-0.5710173262502529	-0.2579307976970502	2.045100725982979	-0.4388183836523927	-0.2523139398974708	1.9515054130511262	-0.41296709369824364	-0.2293744639652495	1.874271096775169	-0.38717444347183316	-0.2334546114943078	2.0538417399586746	-0.6300933326348879	-0.23140379236496145	1.9730464368367036	-0.6597648139506345	-0.20484732505747777	1.9125650702405699	-0.6632434383159411
71	2.3666666666666667	-0.24445279416440982	1.883237132008306	-0.5317297430430623	-0.2536709660270544	1.878801520209368	-0.4641699231784676	-0.2505562568146993	1.7264528591522683	-0.4059283163913969	-0.24006193347515192	1.569062131420254	-0.32817645463539846	-0.213307102546825	1.5085274164146907	-0.341584455000987	-0.22227078726547053	1.5114830866937172	-0.30181756810662497	-0.2475393065846295	1.5588064187689739	-0.3185972072081107	-0.23524932260534814	1.885032869094187	-0.5929668829391568	-0.25955265887553075	1.7316327695244929	-0.5668248998702748	-0.27316680193610415	1.5972300171572253	-0.5268373674277536	-0.24533938260495178	1.5680729712815462	-0.5888736246393725	-0.25141218760823736	1.580014250540755	-0.6052878813821883	-0.26956665780612393	1.5800283415263332	-0.5103896522316559	-0.24549617784603917	2.0505801604561795	-0.5341610692645316	-0.21664650125246607	2.1278781910578424	-0.5760267870859866	-0.2578566927781225	2.046133585158999	-0.4387986017108898	-0.25747830378847014	1.9491964918315388	-0.41181284730986134	-0.24739833326299304	1.8653307836328725	-0.3659547248049965	-0.23144166844922748	2.0540557293710866	-0.632259401094867	-0.2273967322755008	1.9724395460305326	-0.664338446990107	-0.20783664969909044	1.903194116173124	-0.671499525038392
72	2.4	-0.24856748012651514	1.8831221300865173	-0.5272865057822181	-0.2575181557394458	1.8812030487342772	-0.46030033045058627	-0.2509730876824432	1.7295652235426362	-0.4060523540006837	-0.23952018872613426	1.5694287016626638	-0.32886777373323794	-0.21438555738848697	1.507511900644856	-0.33542289895875277	-0.22234150152562732	1.5118430491473411	-0.30170059034744734	-0.24900603374680527	1.563323305788217	-0.32232319107265855	-0.23525097229422318	1.887567278519552	-0.593278943621036	-0.2597235872639846	1.7330254256454427	-0.5667033134370503	-0.2727572581905095	1.600632833024886	-0.5275011432879575	-0.2474210453679451	1.5705418707821788	-0.5869431496362112	-0.2505850198628307	1.5804456019151951	-0.6021505016583123	-0.26956665780612393	1.5800283415263332	-0.5103896522316559	-0.2454952529569999	2.0519291499409653	-0.5347384942884699	-0.2165870854529682	2.1289516181527985	-0.5760205586538523	-0.2578661850426895	2.0475146442612364	-0.4394001308545257	-0.25848019849042914	1.9479777993012317	-0.40630045584800095	-0.2524288817251036	1.8572066501762565	-0.36342390100771166	-0.23133976862681205	2.056550170071396	-0.6327023440378192	-0.22743226455152218	1.9723652300350225	-0.6643411419983745	-0.20921942106199248	1.898070778862526	-0.6741310687109692
73	2.433333333333333	-0.2527048349622543	1.8846182659046942	-0.5316676369694631	-0.26094514326874035	1.8816486192654749	-0.4701154123233786	-0.2509652073907956	1.7317199128301806	-0.4015460545136064	-0.2389784439771166	1.5697952719050736	-0.3295590928310775	-0.2143239904537644	1.5073337057438532	-0.3353423170778055	-0.22276170132610076	1.5102581119182203	-0.2966066693898035	-0.24554373448627212	1.5607979082544345	-0.3215672816312047	-0.23943035193853704	1.887764284434249	-0.597702600079623	-0.2576780745294924	1.7394408865607816	-0.5650684526243576	-0.27256847605563317	1.6022106534308407	-0.5280589642293213	-0.24751288740013627	1.568979326042361	-0.5865017609962524	-0.25164073085927574	1.5816018528168865	-0.6050224796964734	-0.26956665780612393	1.5800283415263332	-0.5103896522316559	-0.24550067202828704	2.051956827319493	-0.5347811393647469	-0.21749034186278624	2.1304500999043015	-0.5795562980734282	-0.25783066446519626	2.0485517914105897	-0.4393512687587777	-0.2615706622993519	1.9471652508270472	-0.4072788400469771	-0.2573052599179637	1.858399744225143	-0.3626408145000487	-0.2313128622095237	2.0565493808137814	-0.6327348290419185	-0.2293533152855234	1.9734486781685694	-0.6623761401400955	-0.21003814180843225	1.8964623579056714	-0.6769960162266182
